<svg width="68" height="68" viewBox="0 0 68 68" fill="none" xmlns="http://www.w3.org/2000/svg">
<path d="M65.5074 5.60785C67.1034 7.20459 68 9.36981 68 11.6274C68 13.8851 67.1034 16.0503 65.5074 17.647L58.0125 25.1462L42.8517 9.99173L50.3508 2.4926C51.9488 0.896441 54.115 -0.00012207 56.3736 -0.00012207C58.6322 -0.00012207 60.7984 0.896441 62.3964 2.4926L65.5074 5.60785ZM5.96912 46.886L39.8437 12.9986L55.0035 28.1509L21.1097 62.0287C20.2137 62.9221 19.1074 63.5758 17.8925 63.9295L4.06725 67.8788C3.51101 68.0411 2.91982 68.0397 2.36435 67.8748C1.80889 67.7099 1.31266 67.3886 0.934999 66.9492C0.528061 66.5743 0.235786 66.0917 0.0921023 65.5574C-0.0515815 65.0231 -0.0407813 64.459 0.123249 63.9306L4.07575 50.1032C4.42038 48.8861 5.07242 47.7782 5.96912 46.886ZM33.1596 13.6722L13.7477 33.0841L2.125 21.4497C1.53243 20.8577 1.06235 20.1547 0.741631 19.3808C0.420908 18.607 0.255829 17.7776 0.255829 16.9399C0.255829 16.1023 0.420908 15.2729 0.741631 14.499C1.06235 13.7252 1.53243 13.0222 2.125 12.4302L12.5056 2.04848C13.0977 1.45591 13.8007 0.985834 14.5745 0.665111C15.3483 0.344387 16.1778 0.179308 17.0154 0.179308C17.8531 0.179308 18.6825 0.344387 19.4563 0.665111C20.2301 0.985834 20.9331 1.45591 21.5252 2.04848L24.1581 4.67604C24.1177 4.71429 24.0646 4.75573 24.0252 4.79929L15.5125 13.311C15.3095 13.507 15.1477 13.7415 15.0363 14.0007C14.9249 14.26 14.8663 14.5388 14.8638 14.821C14.8614 15.1032 14.9152 15.383 15.022 15.6441C15.1288 15.9053 15.2866 16.1425 15.4862 16.3421C15.6857 16.5416 15.9229 16.6994 16.1841 16.8062C16.4453 16.9131 16.7251 16.9668 17.0072 16.9644C17.2894 16.9619 17.5682 16.9033 17.8275 16.7919C18.0867 16.6806 18.3212 16.5187 18.5172 16.3157L27.03 7.80935C27.0704 7.76685 27.0034 7.72117 27.1501 7.67548L33.1596 13.6722ZM60.3224 40.8489C60.2749 40.8851 60.2304 40.9253 60.1896 40.9689L51.68 49.4774C51.2929 49.8782 51.0787 50.415 51.0836 50.9721C51.0884 51.5293 51.3119 52.0623 51.7059 52.4563C52.0999 52.8503 52.6329 53.0737 53.19 53.0786C53.7472 53.0834 54.284 52.8692 54.6847 52.4822L63.1943 43.9726C63.2347 43.8132 63.1677 43.8791 63.3144 43.8398L65.9473 46.4727C67.1424 47.6681 67.8138 49.2894 67.8138 50.9798C67.8138 52.6702 67.1424 54.2914 65.9473 55.4869L55.5634 65.8707C54.3679 67.0658 52.7467 67.7372 51.0563 67.7372C49.3659 67.7372 47.7447 67.0658 46.5492 65.8707L34.9148 54.2512L54.3267 34.8393L60.3224 40.8489Z" fill="#A68F4B"/>
</svg>
