<svg width="68" height="68" viewBox="0 0 68 68" fill="none" xmlns="http://www.w3.org/2000/svg">
<path d="M46.75 12.7501C46.7541 14.5936 46.3552 16.4158 45.5813 18.0891L52.5938 30.2016C49.409 33.6087 45.3467 36.0719 40.8531 37.3204L34 25.5001H33.881L24.956 41.1061C27.8815 42.031 30.9317 42.5012 34 42.5001C38.4741 42.5099 42.8916 41.4995 46.9167 39.5457C50.9417 37.5919 54.4683 34.7462 57.2284 31.2248C57.9547 30.3655 58.9899 29.8264 60.1104 29.7239C61.2308 29.6214 62.3467 29.9637 63.2169 30.6768C64.0872 31.39 64.642 32.4168 64.7616 33.5356C64.8812 34.6543 64.556 35.7753 63.8562 36.6563C60.2685 41.127 55.7239 44.7363 50.557 47.2187C45.3901 49.701 39.7323 50.9932 34 51.0001C29.4342 51.0052 24.9044 50.1908 20.6263 48.5956L13.1017 61.5857C12.4766 62.6644 11.55 63.537 10.4359 64.0964L3.07594 67.7748C2.752 67.9369 2.39201 68.0135 2.03015 67.9973C1.66828 67.9812 1.31655 67.8728 1.00837 67.6824C0.700181 67.4921 0.445766 67.2261 0.269282 66.9098C0.0927977 66.5935 0.00010284 66.2373 0 65.8751L0 58.5183C0.00239815 57.3946 0.298338 56.2911 0.8585 55.317L8.82725 41.5576C7.1275 40.0621 5.56047 38.4222 4.14375 36.6563C3.43736 35.7752 3.10715 34.651 3.22482 33.5279C3.3425 32.4047 3.89857 31.3734 4.77224 30.6578C5.64591 29.9423 6.76662 29.6004 7.89093 29.7063C9.01524 29.8123 10.0523 30.3576 10.7769 31.2237C11.4954 32.2262 12.3053 33.1599 13.1962 34.0128L22.4188 18.0891C21.6216 16.358 21.2227 14.4701 21.2514 12.5644C21.2802 10.6588 21.7357 8.78381 22.5846 7.07744C23.4335 5.37107 24.6542 3.87671 26.1568 2.7043C27.6594 1.5319 29.4057 0.711262 31.2673 0.302771C33.1288 -0.10572 35.0583 -0.0916748 36.9137 0.343872C38.7692 0.77942 40.5034 1.62539 41.9887 2.81955C43.4741 4.0137 44.6729 5.52567 45.4969 7.24422C46.3208 8.96277 46.749 10.8442 46.75 12.7501ZM34 17.0001C34.8406 17.0001 35.6623 16.7508 36.3612 16.2838C37.0601 15.8168 37.6048 15.153 37.9265 14.3765C38.2482 13.5999 38.3323 12.7453 38.1683 11.9209C38.0043 11.0965 37.5996 10.3392 37.0052 9.74485C36.4108 9.15048 35.6536 8.7457 34.8291 8.58171C34.0047 8.41773 33.1502 8.50189 32.3736 8.82356C31.597 9.14524 30.9333 9.68997 30.4663 10.3889C29.9993 11.0878 29.75 11.9095 29.75 12.7501C29.75 13.8772 30.1978 14.9582 30.9948 15.7553C31.7918 16.5523 32.8728 17.0001 34 17.0001ZM49.4201 52.3154C53.7576 50.6594 57.785 48.284 61.3328 45.2891L67.1373 55.317C67.7027 56.2891 68.0004 57.3937 68 58.5183V65.8751C68.0004 66.238 67.9077 66.595 67.731 66.912C67.5542 67.229 67.2992 67.4955 66.9902 67.686C66.6813 67.8764 66.3287 67.9846 65.9661 68.0002C65.6034 68.0157 65.2429 67.9381 64.9187 67.7748L57.5609 64.0954C56.4479 63.5328 55.5208 62.661 54.8909 61.5847L49.4201 52.3154Z" fill="#A68F4B"/>
</svg>
